PathFileType	4	(X/Y/Z)	Kaydara																																																																																																																									
DataRate	CameraRate	NumFrames	NumMarkers	Units	OrigDataRate	OrigDataStartFrame	OrigNumFrames																																																																																																																					
30	30	5	41	mm	30	32	133																																																																																																																					
Frame#	Time	PAIB_LFHD			PAIB_RFHD			PAIB_LBHD			PAIB_RBHD			PAIB_LFTShould			PAIB_RFTShould			PAIB_LRRShould			PAIB_RRRShould			PAIB_T10			PAIB_STRN			PAIB_TRUN			PAIB_LSHO			PAIB_LUPA			PAIB_LELB			PAIB_LFRM			PAIB_LWRA			PAIB_LWRB			PAIB_LFIN			PAIB_RSHO			PAIB_RUPA			PAIB_RELB			PAIB_RFRM			PAIB_RWRA			PAIB_RWRB			PAIB_RFIN			PAIB_LFWT			PAIB_RFWT			PAIB_LBWT			PAIB_RBWT			PAIB_LTHI			PAIB_LKNE			PAIB_LSHN			PAIB_LANK			PAIB_LHEE			PAIB_LTOE			PAIB_RTHI			PAIB_RKNE			PAIB_RSHN			PAIB_RANK			PAIB_RHEE			PAIB_RTOE		
		X1	Y1	Z1	X2	Y2	Z2	X3	Y3	Z3	X4	Y4	Z4	X5	Y5	Z5	X6	Y6	Z6	X7	Y7	Z7	X8	Y8	Z8	X9	Y9	Z9	X10	Y10	Z10	X11	Y11	Z11	X12	Y12	Z12	X13	Y13	Z13	X14	Y14	Z14	X15	Y15	Z15	X16	Y16	Z16	X17	Y17	Z17	X18	Y18	Z18	X19	Y19	Z19	X20	Y20	Z20	X21	Y21	Z21	X22	Y22	Z22	X23	Y23	Z23	X24	Y24	Z24	X25	Y25	Z25	X26	Y26	Z26	X27	Y27	Z27	X28	Y28	Z28	X29	Y29	Z29	X30	Y30	Z30	X31	Y31	Z31	X32	Y32	Z32	X33	Y33	Z33	X34	Y34	Z34	X35	Y35	Z35	X36	Y36	Z36	X37	Y37	Z37	X38	Y38	Z38	X39	Y39	Z39	X40	Y40	Z40	X41	Y41	Z41
																																																																																																																												
17	1.033	268.33771	1704.42719	-2015.64453	82.69032	1709.68292	-2023.25241	276.99757	1637.88071	-2127.33658	75.28293	1659.42749	-2128.54431	234.17074	1439.65347	-1974.28207	109.71858	1436.35559	-1972.37366	238.30406	1500.49377	-2122.14203	86.7044	1498.63068	-2109.43802	159.41473	1339.15512	-2194.73633	181.85614	1371.77277	-1932.97577	182.10646	1270.20622	-1911.47964	362.33494	1452.38525	-2061.27457	423.75549	1226.41022	-2075.24429	437.45167	1144.91463	-2115.40359	463.41591	1035.34508	-2062.71835	418.76732	934.4738	-1957.05017	448.99105	907.26807	-2024.48669	468.91628	879.18228	-1960.05356	-20.24481	1437.44095	-2028.40607	-89.35493	1268.4903	-2081.86386	-114.63084	1153.92006	-2092.82166	-133.23966	1021.03462	-2051.11542	-74.30686	926.39801	-1945.85892	-141.78907	908.40652	-1992.09167	-132.80869	878.18047	-1923.88611	282.43765	973.85666	-1955.81711	45.73477	975.1342	-1953.48434	217.87046	1025.1368	-2170.12115	74.30078	1026.95984	-2165.0853	265.62948	749.888	-2168.96072	307.50576	499.98234	-2084.05487	281.56399	311.70485	-2082.73071	282.42832	129.85958	-2176.00662	228.42184	121.70636	-2224.11301	261.43557	74.94362	-2002.17407	18.87888	725.80223	-2156.39099	3.81888	485.95158	-2070.74463	55.21345	298.16551	-2069.65683	21.76899	105.90018	-2172.48199	88.7096	114.11669	-2219.27429	28.43317	77.28651	-1999.20334
18	1.067	268.52171	1704.52164	-2014.43329	82.82625	1709.72153	-2022.23587	277.25761	1637.89078	-2125.87463	75.58652	1659.60983	-2127.51953	234.12315	1439.43283	-1973.16681	109.63481	1436.05927	-1971.60202	238.65883	1500.41702	-2120.90591	87.01872	1498.58063	-2108.6412	160.04984	1339.13696	-2193.79349	181.76924	1371.56815	-1932.07001	181.97695	1270.0322	-1910.54855	362.5066	1452.19055	-2059.67346	423.82778	1226.24275	-2073.77411	437.66537	1144.78546	-2114.12003	463.59318	1035.03273	-2061.95786	418.80501	933.40767	-1957.04666	449.30969	906.7646	-2024.56085	468.94302	878.2589	-1960.09674	-20.07457	1437.18719	-2027.90924	-88.86766	1268.24829	-2081.79108	-114.12621	1153.7748	-2093.20801	-132.70941	1020.70015	-2051.87958	-74.22753	925.54276	-1946.81747	-141.52265	908.01819	-1993.5083	-132.72263	877.29736	-1925.23956	282.46277	973.68973	-1954.69467	45.7587	975.06027	-1952.94678	218.42054	1025.22064	-2169.04984	74.80716	1027.03079	-2164.38828	266.13646	750.10414	-2168.29651	307.69136	500.05135	-2083.85208	281.62968	311.77086	-2082.55859	282.3447	129.92087	-2176.03638	228.40115	121.80178	-2224.10141	261.38588	74.92986	-2002.12204	19.35207	725.9243	-2156.13831	3.96177	486.03077	-2070.83008	54.84606	298.5009	-2068.78387	21.85104	105.962	-2172.42722	88.86408	114.15987	-2219.24576	28.42944	77.25099	-1999.18411
19	1.1	268.71195	1704.45374	-2012.88925	83.0065	1709.67285	-2021.16058	277.67294	1638.20618	-2124.61868	75.99547	1659.70093	-2126.54449	234.0354	1439.3576	-1972.03995	109.6101	1435.98541	-1970.8403	239.04196	1500.31784	-2119.77203	87.36753	1498.52081	-2107.90817	160.7061	1339.05319	-2192.75589	181.65783	1371.57913	-1931.11404	181.8405	1270.04562	-1909.54529	362.79285	1451.95572	-2058.28781	423.59394	1227.63474	-2075.78613	438.04451	1144.69803	-2112.89307	464.01905	1034.75296	-2061.42166	419.06281	932.08237	-1957.41959	449.93855	906.14594	-2024.94568	469.21391	877.04552	-1960.43427	-19.9463	1437.05307	-2027.53723	-88.40871	1268.06625	-2081.86203	-113.34067	1153.47206	-2093.24753	-132.27549	1020.38651	-2052.54837	-74.24122	924.93271	-1947.5769	-141.20424	907.20802	-1994.23798	-132.66508	876.57043	-1926.38	282.48966	973.62282	-1953.69843	45.768	974.92538	-1952.5119	218.98739	1025.14076	-2167.73071	75.3131	1027.14439	-2163.78738	266.5563	750.30502	-2167.63138	307.98405	500.12924	-2083.6113	281.74021	311.76655	-2082.33124	282.34192	130.02034	-2176.02585	228.41084	121.97691	-2224.01947	261.39578	74.92723	-2002.09137	19.51385	725.98587	-2155.80078	4.00482	486.03504	-2070.46463	55.2606	298.15786	-2069.38187	21.86826	106.11708	-2172.42188	88.88567	114.26735	-2219.18991	28.43136	77.23715	-1999.15649
20	1.133	268.95815	1704.65485	-2011.6864	83.17511	1709.49203	-2020.26169	278.11626	1638.19244	-2123.22906	76.44425	1659.56528	-2125.70984	234.00394	1439.2363	-1970.87875	109.6771	1435.94559	-1970.03662	239.47453	1500.11124	-2118.57864	87.80159	1498.47122	-2107.1431	161.25809	1338.98056	-2191.8811	181.61165	1371.49567	-1930.11566	181.60259	1269.98116	-1908.49686	362.93617	1451.73691	-2056.67709	424.39022	1226.01151	-2071.32996	438.28381	1144.5594	-2111.76102	464.57176	1034.41467	-2061.07071	419.80484	930.83809	-1957.82883	450.78239	905.48515	-2025.59097	470.18196	875.93643	-1961.36566	-19.76509	1436.94031	-2027.16476	-88.00081	1267.97836	-2081.77628	-112.875	1153.36601	-2093.32382	-131.92144	1020.19989	-2053.06137	-74.28346	924.4368	-1948.07281	-141.15654	907.01393	-1995.1947	-132.7988	876.01753	-1927.2467	282.56948	973.56674	-1952.91245	45.89122	974.88907	-1951.96289	219.43825	1025.13931	-2166.89484	75.67238	1027.11479	-2163.1781	266.9109	750.29572	-2167.03369	308.06295	500.17941	-2082.55005	281.68402	311.66779	-2081.63681	282.42775	129.91035	-2175.91522	228.56295	122.15911	-2224.15527	261.36927	74.91253	-2002.12891	19.55692	725.93063	-2155.4985	4.00644	485.91854	-2070.02472	55.23464	298.05969	-2069.13101	21.82959	106.07706	-2172.25479	88.81598	114.23083	-2219.15741	28.42755	77.22702	-1999.17404
21	1.167	269.12914	1704.55978	-2010.54047	83.33315	1709.3985	-2019.52682	278.52083	1638.00125	-2121.93893	76.85048	1659.43604	-2124.9234	234.23162	1438.84109	-1969.7966	109.80203	1435.69244	-1969.0976	239.96391	1499.96307	-2117.2728	88.17768	1498.4108	-2106.16302	161.82234	1338.96805	-2190.81757	181.77065	1371.12305	-1929.13513	181.59782	1269.58801	-1907.64816	363.10848	1451.44699	-2056.57608	424.51992	1225.41862	-2069.86145	438.57151	1144.32785	-2110.63599	465.19512	1033.99666	-2060.7724	420.98869	929.53621	-1958.36487	451.86714	904.81689	-2026.31577	471.38603	874.76921	-1962.2966	-19.53554	1436.72531	-2026.40671	-87.65452	1267.89673	-2081.55136	-112.49409	1153.31833	-2093.34229	-131.67619	1020.1339	-2053.311	-74.36879	924.12613	-1948.29529	-141.09186	906.98975	-1995.84625	-133.0092	875.74005	-1927.74078	282.7434	973.72612	-1952.3468	46.03665	974.78783	-1951.32019	219.71714	1025.05127	-2166.28799	75.87526	1027.14355	-2162.53357	266.96608	750.11055	-2166.16577	308.12996	500.36953	-2080.88379	281.57326	311.40779	-2080.39352	282.5515	130.07964	-2175.53955	228.72169	122.31939	-2223.95172	261.31849	74.88426	-2002.14874	19.65018	726.01982	-2155.10345	4.12429	485.89897	-2069.94034	55.33669	298.11068	-2069.07852	21.79878	106.0867	-2172.23801	88.80359	114.24171	-2219.12506	28.43322	77.22417	-1999.12567
